<?xml version="1.0" encoding="utf-8"?>
<!-- Generator: Adobe Illustrator 16.0.0, SVG Export Plug-In . SVG Version: 6.00 Build 0)  -->
<!DOCTYPE svg PUBLIC "-//W3C//DTD SVG 1.1//EN" "http://www.w3.org/Graphics/SVG/1.1/DTD/svg11.dtd">
<svg version="1.1" id="Слой_1" xmlns="http://www.w3.org/2000/svg" xmlns:xlink="http://www.w3.org/1999/xlink" x="0px" y="0px"
	 width="26.667px" height="10.373px" viewBox="0 0 26.667 10.373" enable-background="new 0 0 26.667 10.373" xml:space="preserve">
<path fill-rule="evenodd" clip-rule="evenodd" fill="#FFFFFF" d="M3.434,3.013c1.2,0,2.174,0.973,2.174,2.174
	c0,1.2-0.974,2.173-2.174,2.173S1.26,6.387,1.26,5.187C1.26,3.986,2.233,3.013,3.434,3.013z M13.593,1.563
	c2,0,3.622,1.623,3.622,3.624c0,2-1.622,3.622-3.622,3.622c-2.001,0-3.623-1.622-3.623-3.622C9.97,3.186,11.592,1.563,13.593,1.563z
	 M23.233,3.013c1.201,0,2.174,0.973,2.174,2.174c0,1.2-0.973,2.173-2.174,2.173c-1.2,0-2.173-0.974-2.173-2.173
	C21.061,3.986,22.033,3.013,23.233,3.013z"/>
</svg>
