<svg width="28" height="28" viewBox="0 0 28 28" fill="none" xmlns="http://www.w3.org/2000/svg">
<path fill-rule="evenodd" clip-rule="evenodd" d="M12 2.09692C9.79297 2.38441 7.78258 3.29764 6.15263 4.65276L8.28619 6.78633C9.35081 5.95836 10.6176 5.37805 12 5.13192V2.09692ZM15 5.13192V2.09692C17.2069 2.38441 19.2173 3.2976 20.8472 4.65268L18.7136 6.78625C17.6491 5.95832 16.3823 5.37805 15 5.13192ZM20.724 9.01855C21.3665 10.052 21.7933 11.2334 21.9418 12.5H24.9571C24.7769 10.4082 24.0367 8.47639 22.8872 6.85534L20.724 9.01855ZM24.8267 15.5H21.7633C21.4768 16.6881 20.9407 17.7788 20.2137 18.7137L22.3472 20.8473C23.5993 19.3413 24.4741 17.5105 24.8267 15.5ZM20.1445 22.8873L17.9813 20.724C17.0852 21.2812 16.0777 21.6762 15 21.8681V24.903C16.8995 24.6556 18.6535 23.9446 20.1445 22.8873ZM12 24.903V21.8681C10.9222 21.6762 9.9147 21.2811 9.01849 20.724L6.85529 22.8872C8.34637 23.9446 10.1003 24.6556 12 24.903ZM4.65264 20.8472L6.78621 18.7136C6.05918 17.7788 5.52312 16.688 5.2366 15.5H2.17327C2.52584 17.5105 3.40063 19.3412 4.65264 20.8472ZM2.04285 12.5H5.05817C5.2066 11.2335 5.63346 10.0521 6.27588 9.01866L4.11267 6.85544C2.96318 8.47647 2.22303 10.4082 2.04285 12.5Z" fill="white"/><animateTransform attributeType="xml" attributeName="transform" type="rotate" from="0" values="1;30;31;60;61;90;91;120;121;150;151;180;181;210;211;240;241;270;271;300;301;330;331;360" begin="0" dur="2s" repeatCount="indefinite" calcMode="linear" />
</svg>
