<?xml version="1.0" standalone="no"?>
<!DOCTYPE svg PUBLIC "-//W3C//DTD SVG 20010904//EN"
 "http://www.w3.org/TR/2001/REC-SVG-20010904/DTD/svg10.dtd">
<svg version="1.0" xmlns="http://www.w3.org/2000/svg"
 width="520.000000pt" height="520.000000pt" viewBox="0 0 520.000000 520.000000"
 preserveAspectRatio="xMidYMid meet">
<metadata>
Created by potrace 1.11, written by Peter Selinger 2001-2013
</metadata>
<g transform="translate(0.000000,520.000000) scale(0.100000,-0.100000)"
fill="#000000" stroke="none">
<path d="M1012 2600 l0 -2098 61 36 c34 19 80 45 102 57 22 13 384 222 805
465 955 552 1223 707 1314 759 194 112 897 518 921 532 17 11 37 22 45 26 8 4
74 42 148 85 73 43 137 78 142 78 6 0 10 5 10 10 0 6 6 10 14 10 8 0 28 11 43
24 27 23 27 25 8 32 -11 4 -47 24 -80 44 -33 20 -67 40 -75 44 -8 4 -24 12
-35 19 -19 11 -210 122 -285 165 -19 11 -150 86 -290 167 -399 230 -1031 595
-1075 620 -22 13 -177 102 -343 199 -167 97 -305 176 -307 176 -2 0 -56 32
-121 70 -64 39 -118 70 -119 70 -2 0 -36 19 -77 43 -40 24 -93 55 -118 69 -25
14 -170 98 -324 187 -153 88 -282 161 -286 161 -5 0 -10 3 -12 8 -1 4 -17 14
-35 23 l-31 17 0 -2098z m880 751 c87 -51 908 -524 1156 -667 l144 -82 -119
-70 c-65 -38 -140 -82 -168 -97 -27 -16 -81 -47 -120 -70 -58 -35 -399 -232
-512 -296 -132 -75 -420 -243 -437 -255 -11 -8 -25 -14 -31 -14 -8 0 -11 229
-11 800 0 440 3 800 8 800 4 0 45 -22 90 -49z"/>
</g>
</svg>
