<?xml version="1.0" standalone="no"?>
<!DOCTYPE svg PUBLIC "-//W3C//DTD SVG 20010904//EN"
 "http://www.w3.org/TR/2001/REC-SVG-20010904/DTD/svg10.dtd">
<svg version="1.0" xmlns="http://www.w3.org/2000/svg"
 width="512.000000pt" height="512.000000pt" viewBox="0 0 512.000000 512.000000"
 preserveAspectRatio="xMidYMid meet">
<metadata>
Created by potrace 1.14, written by Peter Selinger 2001-2017
</metadata>
<g transform="translate(0.000000,512.000000) scale(0.100000,-0.100000)"
fill="#000000" stroke="none">
<path d="M4278 4799 c-64 -33 -88 -113 -48 -160 l19 -24 -10 30 c-25 69 41
126 121 105 54 -15 100 -62 100 -104 0 -71 -46 -154 -97 -174 -15 -6 -65 -25
-110 -42 -92 -35 -133 -69 -213 -179 -61 -83 -107 -116 -152 -107 -31 6 -31 6
-13 -14 24 -26 85 -26 140 0 22 11 67 45 99 76 l58 56 19 -21 c24 -26 24 -31
-3 -31 l-23 0 24 -19 c14 -10 21 -23 17 -30 -11 -17 11 -75 39 -101 32 -31
101 -38 148 -15 42 20 77 70 77 109 0 23 2 25 19 16 28 -15 77 -12 111 5 56
29 77 109 43 166 -23 39 -62 53 -128 46 -30 -3 -55 -4 -55 -2 0 2 11 15 24 28
13 14 37 49 52 78 24 45 28 67 29 131 0 70 -2 79 -31 115 -65 81 -172 107
-256 62z m160 -459 c14 -11 45 -25 69 -31 50 -13 59 -39 14 -39 -18 0 -41 10
-57 25 -29 27 -41 30 -64 15 -13 -8 -12 -10 3 -10 11 0 17 -8 17 -23 0 -23 -1
-23 -87 -15 -49 4 -99 11 -113 14 -24 5 -24 6 -5 17 11 7 58 24 105 38 47 15
87 27 88 28 2 0 15 -8 30 -19z m-89 -186 c2 -2 -8 -8 -21 -15 -30 -13 -63 0
-71 30 -4 18 -3 18 42 4 25 -9 48 -17 50 -19z"/>
<path d="M3878 4794 c-55 -30 -66 -98 -20 -134 l27 -22 3 26 c4 28 31 49 49
38 6 -4 20 -26 31 -49 12 -22 27 -43 34 -46 7 -3 4 -6 -7 -6 -34 -2 -121 -47
-163 -85 l-39 -36 -6 55 c-9 90 -48 135 -117 135 -35 0 -92 -47 -110 -90 -24
-59 20 -130 82 -130 52 0 62 12 33 40 -29 27 -31 42 -10 60 12 10 23 4 64 -40
47 -50 48 -53 35 -78 -26 -50 -16 -51 69 -12 95 45 196 74 307 91 43 6 93 20
112 31 l33 21 -85 23 c-47 13 -105 24 -129 24 -40 0 -43 2 -36 23 16 50 16 85
1 116 -29 55 -101 76 -158 45z"/>
<path d="M3926 4372 c-9 -27 -103 -123 -295 -299 -118 -108 -161 -139 -161
-117 0 4 51 59 113 123 61 64 148 159 192 211 91 108 109 122 -202 -152 -163
-145 -203 -174 -203 -149 0 15 256 246 353 319 48 36 85 67 83 70 -13 13 -247
-144 -440 -296 l-89 -69 -96 29 c-391 119 -747 213 -916 244 -131 24 -417 24
-485 1 l-45 -16 50 6 c119 12 374 -28 620 -97 127 -36 637 -206 590 -196 -11
2 -105 27 -210 56 -278 76 -756 183 -915 204 -41 6 720 -252 1053 -356 l138
-43 -165 -132 c-90 -73 -169 -133 -175 -133 -6 0 -11 -4 -11 -9 0 -5 -105 -94
-233 -199 -516 -423 -1128 -951 -1239 -1071 l-66 -71 -103 -15 c-133 -19 -223
-19 -238 -1 -15 17 24 70 46 62 10 -4 13 0 11 11 -2 10 -15 20 -31 23 l-28 5
44 43 43 43 40 -17 c72 -30 139 -16 299 65 172 86 236 140 290 243 31 59 39
85 43 144 2 40 0 86 -6 103 -10 28 -9 32 23 51 49 30 109 100 201 236 96 140
168 217 252 272 113 73 275 122 399 122 53 -1 180 -20 228 -34 11 -4 2 3 -20
13 -22 11 -82 28 -134 37 -173 31 -323 6 -494 -84 -117 -61 -186 -126 -305
-285 -54 -73 -116 -147 -137 -166 -38 -33 -128 -81 -152 -81 -19 0 -16 -11 14
-55 59 -87 35 -206 -59 -290 -88 -79 -287 -175 -362 -175 -56 0 -69 16 -91
110 -10 41 -21 78 -24 83 -4 4 -27 -36 -50 -88 -24 -52 -61 -115 -82 -139 -42
-47 -135 -110 -291 -195 -115 -63 -213 -139 -266 -207 -127 -160 -198 -433
-173 -667 32 -298 152 -532 387 -756 234 -224 513 -354 719 -336 107 9 113 9
165 -5 108 -29 290 6 400 75 122 77 192 175 304 428 82 185 118 240 212 325
l64 58 -52 34 c-63 43 -91 93 -96 175 -7 111 46 211 188 356 118 120 173 154
252 154 49 0 62 -5 97 -33 l40 -32 11 38 c13 51 60 115 111 152 23 16 91 57
153 91 279 154 348 227 397 417 32 125 22 220 -36 339 -34 69 -121 163 -180
194 -25 13 -45 30 -45 38 0 26 -70 159 -111 211 l-41 52 88 82 c49 44 138 127
197 184 60 56 113 102 118 102 5 0 126 -34 269 -75 212 -61 614 -170 705 -191
43 -10 -15 17 -226 105 -119 49 -312 124 -430 167 -118 42 -218 81 -224 86 -6
6 -4 7 5 4 88 -31 800 -234 1078 -307 67 -18 122 -35 122 -38 0 -3 -7 -14 -14
-23 -12 -16 -21 -17 -97 -6 -88 13 -99 19 -99 55 0 51 -66 -27 -77 -90 l-5
-35 64 -20 c84 -26 194 -37 231 -23 36 14 49 49 35 95 -6 20 -9 38 -7 40 2 2
42 -4 89 -14 47 -10 110 -20 140 -23 l55 -5 -50 15 c-27 7 -125 41 -217 74
-298 107 -627 218 -897 305 -145 46 -266 86 -269 89 -3 3 39 51 94 107 188
195 275 311 261 351 -2 7 -7 2 -11 -11z m-861 -402 c13 -5 14 -9 5 -9 -8 0
-24 4 -35 9 -13 5 -14 9 -5 9 8 0 24 -4 35 -9z m105 -173 c-32 -29 -224 -179
-209 -163 44 47 196 175 209 175 13 1 13 -1 0 -12z m120 -21 c0 -2 -78 -71
-172 -152 -498 -426 -760 -667 -1030 -942 -172 -176 -220 -220 -247 -225 -43
-9 -138 -86 -308 -250 -205 -199 -302 -331 -367 -497 -16 -41 -40 -90 -53
-107 -20 -28 -30 -33 -65 -33 -34 0 -46 6 -76 38 l-35 37 19 -34 c37 -66 116
-91 166 -51 14 10 42 52 63 92 115 221 287 408 571 624 90 69 117 84 146 84
32 0 44 10 139 111 109 118 399 393 739 702 l205 187 17 -23 c34 -44 87 -163
103 -231 26 -113 12 -326 -27 -419 -29 -67 -68 -136 -68 -119 0 30 -19 7 -39
-48 -18 -49 -33 -69 -81 -109 -90 -75 -137 -105 -288 -184 -164 -86 -245 -107
-307 -81 l-37 15 16 -22 c15 -22 14 -23 -64 -60 -189 -89 -355 -269 -404 -438
-32 -108 -11 -204 58 -277 l44 -45 -36 -52 c-44 -65 -103 -190 -154 -327 -100
-268 -213 -445 -338 -528 -79 -53 -143 -72 -246 -72 -187 0 -409 117 -617 324
-233 234 -350 506 -350 816 1 192 48 360 137 484 26 36 51 66 56 66 5 0 38 21
73 48 49 36 187 115 297 170 3 1 4 -18 2 -43 -5 -53 13 -87 59 -111 49 -25
179 -16 246 17 29 14 49 20 45 14 -4 -6 -28 -40 -53 -76 -44 -61 -133 -215
-112 -194 5 6 40 49 77 97 123 161 263 291 566 528 l145 113 -195 -199 c-220
-224 -283 -295 -363 -407 -61 -84 -131 -207 -141 -247 -4 -14 7 -1 23 29 125
220 530 597 1356 1261 343 276 651 532 790 658 90 82 115 101 115 88z m-28
-815 c78 -112 101 -287 54 -415 -33 -91 -114 -212 -130 -195 -3 2 -22 49 -44
104 -32 84 -37 105 -29 130 l10 29 63 -69 64 -70 -40 118 c-21 64 -37 117 -35
117 3 0 28 -18 57 -40 29 -22 56 -40 59 -40 4 0 -11 33 -31 73 -21 39 -44 91
-51 114 -6 23 -16 40 -20 37 -5 -3 -9 9 -9 25 0 17 4 31 9 31 4 0 29 -18 55
-41 52 -46 54 -42 26 33 -25 66 -79 136 -91 116 -7 -10 -9 -9 -9 4 0 9 -3 25
-7 35 -9 26 62 -43 99 -96z m-142 -561 c76 -68 87 -46 -90 -173 -153 -109
-262 -213 -289 -277 -12 -28 -23 -50 -25 -50 -2 0 -18 6 -36 14 -26 11 -38 27
-66 91 -19 43 -34 83 -34 89 0 6 42 34 92 61 105 57 225 140 281 193 l37 36
45 -44 c48 -47 55 -41 32 26 -21 60 -28 94 -20 94 5 -1 37 -27 73 -60z m-551
-404 l63 -63 -54 -7 c-75 -10 -136 -41 -254 -129 -114 -85 -194 -175 -233
-257 -29 -63 -41 -206 -23 -260 6 -17 7 -28 3 -25 -5 3 -17 27 -26 53 -16 44
-22 50 -59 60 -85 23 -129 109 -107 214 11 53 59 142 107 202 l22 26 67 -45
c36 -25 70 -45 74 -45 4 0 -10 35 -31 77 -37 77 -37 78 -18 97 19 20 20 19 85
-43 36 -35 68 -62 70 -59 3 2 -5 28 -16 58 -11 29 -19 66 -17 83 l3 30 53 -43
c30 -23 55 -40 57 -38 2 1 -1 23 -5 48 -15 75 -13 89 16 96 16 4 29 1 37 -8
14 -17 72 -58 81 -58 4 0 4 16 0 35 -16 85 21 85 105 1z m-575 -759 c17 -13
50 -34 72 -46 l41 -23 -46 -62 c-25 -34 -59 -87 -75 -119 -15 -31 -30 -57 -31
-57 -2 0 -20 42 -40 94 -28 70 -41 93 -52 89 -13 -5 -13 -3 -2 15 13 20 15 19
72 -35 32 -30 60 -53 63 -50 8 7 -47 181 -58 185 -8 4 9 32 20 32 3 0 19 -10
36 -23z m-114 -275 l63 -58 -17 -49 c-28 -84 -30 -83 -71 14 -37 90 -49 103
-73 79 -7 -7 -5 6 5 30 9 23 19 42 23 42 4 0 36 -26 70 -58z m-64 -149 c35
-31 64 -63 64 -70 0 -16 -38 -93 -46 -93 -5 0 -55 106 -68 144 -6 17 -8 17
-32 1 -14 -9 -27 -15 -29 -13 -4 5 33 88 40 88 4 0 35 -26 71 -57z m-43 -159
c26 -20 47 -39 47 -44 0 -20 -95 -133 -142 -169 -94 -70 -241 -121 -351 -121
l-42 0 59 30 c114 58 225 175 297 314 l33 64 26 -19 c14 -11 46 -36 73 -55z"/>
<path d="M1940 2245 c-7 -9 -10 -18 -6 -22 3 -3 6 -1 6 6 0 23 45 7 48 -17 6
-42 -25 -70 -150 -134 -305 -155 -471 -320 -532 -527 -49 -168 12 -316 131
-316 37 0 49 5 69 28 13 15 24 40 23 55 0 26 -1 26 -9 5 -5 -12 -20 -29 -35
-39 -21 -14 -30 -15 -56 -4 -77 32 -78 147 -3 298 58 119 148 211 328 337 257
180 276 198 276 267 0 63 -57 103 -90 63z"/>
<path d="M851 1647 c0 -10 -13 -45 -27 -79 -58 -138 -132 -490 -169 -803 -8
-71 -17 -144 -20 -162 -5 -30 -3 -33 32 -42 77 -22 74 -25 121 132 55 178 121
356 229 612 46 110 87 207 90 215 10 24 -30 -28 -94 -125 -33 -49 -95 -153
-137 -230 -54 -100 -76 -132 -76 -113 0 14 14 147 30 294 17 147 29 279 27
293 -2 14 -5 18 -6 8z"/>
</g>
</svg>
