<?xml version="1.0" encoding="utf-8"?>
<svg version="1.1" id="Слой_1" xmlns="http://www.w3.org/2000/svg" xmlns:xlink="http://www.w3.org/1999/xlink" x="0px" y="0px"
	 width="1920px" height="7815px" viewBox="0 0 1920 7815" enable-background="new 0 0 1920 7815" xml:space="preserve">
<path fill-rule="evenodd" clip-rule="evenodd" fill="#0C0920" d="M1921.5,4300.467v473.405
	c-162.579,230.655-544.128,340.282-697.136,218.199c-182.555-145.657-119.362-665.173,214.056-803.127
	C1632.009,4108.846,1820.035,4168.66,1921.5,4300.467z M487.071,3490.763c-34.127,178.568,237.009,531.04,462.094,508.468
	c223.201-22.384,282.977-320.481,102.789-537.577C863.372,3234.443,521.198,3312.194,487.071,3490.763z M1609.5,1662
	c-344-76-348,132-620,384s-424-156-616-188c-136.265-22.711-292.673,89.565-372,156.665v777.347
	c69.248-283.395,198.511-706.969,364-770.013c252-96,15.559,416.727,332,520c341.981,111.609,695.871-826.354,932-408
	c102.155,180.99,211.193,272.222,292,318.083v-995.825C1853.279,1589.044,1752.954,1693.693,1609.5,1662z M1019.25,1603.5
	c133.515,0,322.823-347.536,235.75-448.75c-87-101.129-435.5-101.129-474.5,63C749.634,1347.647,885.735,1603.5,1019.25,1603.5z
	 M1921.5,5871.988c-83.886-58.922-197.627-118.051-300-100.989c-192,32-344,440.001-616,188.001c-272-252.001-276-460.001-620-384
	c-206.185,45.553-323.273-190.545-384-387.031v1210.162c76.894-26.717,226.668-107.817,364-351.132
	c236.128-418.353,590.018,519.608,932,408.001c316.44-103.273,80-616.001,332-520.001c119.021,45.342,219.305,277.175,292,509.222
	V5871.988z M1.5,1112.393c110.247,7.67,273.673-75.216,302.154-202.144c35.419-157.852-112.772-278.476-268.309-214.122
	c-11.999,4.965-23.275,10.949-33.845,17.79V1112.393z M1875.111,2876.006c-156.527,91.109-285.736,365.587-154.168,525.217
	c37.736,45.785,115.518,56.674,200.557,37.19v-585.092C1906.109,2859.459,1890.613,2866.983,1875.111,2876.006z M793.155,6829.633
	c-234.6-204.436-583.626-210.758-791.655-84.437v615.795c154.791,145.936,396.095,253.955,655.202,221.097
	C951.344,7544.724,1107.091,7103.201,793.155,6829.633z"/>
</svg>
