<?xml version="1.0" encoding="utf-8"?>
<!-- Generator: Adobe Illustrator 16.0.0, SVG Export Plug-In . SVG Version: 6.00 Build 0)  -->
<!DOCTYPE svg PUBLIC "-//W3C//DTD SVG 1.1//EN" "http://www.w3.org/Graphics/SVG/1.1/DTD/svg11.dtd">
<svg version="1.1" id="Слой_1" xmlns="http://www.w3.org/2000/svg" xmlns:xlink="http://www.w3.org/1999/xlink" x="0px" y="0px"
	 width="293.651px" height="25.381px" viewBox="0 0 293.651 25.381" enable-background="new 0 0 293.651 25.381"
	 xml:space="preserve">
<linearGradient id="SVGID_1_" gradientUnits="userSpaceOnUse" x1="1.6743" y1="12.6904" x2="291.9775" y2="12.6904">
	<stop  offset="0" style="stop-color:#6D02E5"/>
	<stop  offset="1" style="stop-color:#FF0042"/>
</linearGradient>
<path fill="url(#SVGID_1_)" d="M1.674,21.828l1.788-3.967c1.919,1.398,4.78,2.374,7.512,2.374c3.121,0,4.39-1.041,4.39-2.439
	c0-4.259-13.234-1.333-13.234-9.787c0-3.87,3.122-7.089,9.593-7.089c2.861,0,5.788,0.683,7.901,2.016l-1.626,4
	c-2.113-1.203-4.292-1.789-6.308-1.789c-3.122,0-4.325,1.171-4.325,2.602c0,4.195,13.234,1.301,13.234,9.657
	c0,3.805-3.154,7.056-9.657,7.056C7.333,24.461,3.69,23.389,1.674,21.828z M41.152,16.007v8.064h-5.268v-8.129L27.073,1.31h5.593
	l6.08,10.113L44.827,1.31h5.17L41.152,16.007z M79.2,24.071l-0.033-13.657l-6.698,11.25h-2.374l-6.665-10.958v13.364h-4.943V1.31
	h4.357l8.52,14.145l8.39-14.145h4.324l0.065,22.762H79.2z M115.785,9.569c0,5.073-3.805,8.227-9.886,8.227h-4.585v6.276h-5.268V1.31
	h9.853C111.98,1.31,115.785,4.464,115.785,9.569z M110.452,9.569c0-2.504-1.626-3.967-4.845-3.967h-4.293v7.901h4.293
	C108.826,13.503,110.452,12.04,110.452,9.569z M146.906,1.31v22.762h-5.268v-9.332h-10.341v9.332h-5.268V1.31h5.268v8.975h10.341
	V1.31H146.906z M157.379,12.69c0-6.763,5.268-11.771,12.454-11.771c7.153,0,12.453,4.975,12.453,11.771s-5.3,11.771-12.453,11.771
	C162.647,24.461,157.379,19.454,157.379,12.69z M176.955,12.69c0-4.325-3.057-7.284-7.121-7.284c-4.065,0-7.121,2.959-7.121,7.284
	s3.056,7.284,7.121,7.284C173.898,19.974,176.955,17.015,176.955,12.69z M213.636,1.31v22.762h-4.324l-11.348-13.819v13.819h-5.203
	V1.31h4.357l11.317,13.82V1.31H213.636z M225.542,1.31h5.268v22.762h-5.268V1.31z M242.517,14.056V1.31h5.268v12.552
	c0,4.325,1.885,6.113,5.072,6.113c3.219,0,5.072-1.788,5.072-6.113V1.31h5.203v12.747c0,6.698-3.838,10.405-10.309,10.405
	S242.517,20.754,242.517,14.056z M273.052,21.828l1.789-3.967c1.918,1.398,4.779,2.374,7.512,2.374c3.121,0,4.389-1.041,4.389-2.439
	c0-4.259-13.234-1.333-13.234-9.787c0-3.87,3.123-7.089,9.594-7.089c2.861,0,5.787,0.683,7.9,2.016l-1.625,4
	c-2.113-1.203-4.293-1.789-6.309-1.789c-3.121,0-4.324,1.171-4.324,2.602c0,4.195,13.234,1.301,13.234,9.657
	c0,3.805-3.154,7.056-9.658,7.056C278.71,24.461,275.069,23.389,273.052,21.828z"/>
</svg>
