<?xml version="1.0" encoding="utf-8"?>
<!-- Generator: Adobe Illustrator 16.0.0, SVG Export Plug-In . SVG Version: 6.00 Build 0)  -->
<!DOCTYPE svg PUBLIC "-//W3C//DTD SVG 1.1//EN" "http://www.w3.org/Graphics/SVG/1.1/DTD/svg11.dtd">
<svg version="1.1" id="Слой_1" xmlns="http://www.w3.org/2000/svg" xmlns:xlink="http://www.w3.org/1999/xlink" x="0px" y="0px"
	 width="43.002px" height="25.381px" viewBox="0 0 43.002 25.381" enable-background="new 0 0 43.002 25.381" xml:space="preserve">
<linearGradient id="SVGID_1_" gradientUnits="userSpaceOnUse" x1="-100.6658" y1="-7.27" x2="-61.3621" y2="-7.27" gradientTransform="matrix(1 0 0 -1 102.3398 5.4209)">
	<stop  offset="0" style="stop-color:#6D02E5"/>
	<stop  offset="1" style="stop-color:#FF0042"/>
</linearGradient>
<path fill="url(#SVGID_1_)" d="M1.674,21.828l1.788-3.968c1.919,1.398,4.78,2.375,7.512,2.375c3.121,0,4.39-1.041,4.39-2.439
	c0-4.259-13.233-1.333-13.233-9.787c0-3.87,3.122-7.089,9.593-7.089c2.861,0,5.788,0.683,7.901,2.016l-1.626,4
	c-2.113-1.203-4.292-1.789-6.309-1.789c-3.122,0-4.324,1.171-4.324,2.602c0,4.195,13.233,1.301,13.233,9.657
	c0,3.805-3.154,7.056-9.657,7.056C7.333,24.461,3.69,23.39,1.674,21.828z M22.052,21.828l1.789-3.968
	c1.918,1.398,4.779,2.375,7.512,2.375c3.121,0,4.39-1.041,4.39-2.439c0-4.259-13.234-1.333-13.234-9.787
	c0-3.87,3.123-7.089,9.594-7.089c2.861,0,5.787,0.683,7.9,2.016l-1.625,4c-2.113-1.203-4.293-1.789-6.31-1.789
	c-3.121,0-4.323,1.171-4.323,2.602c0,4.195,13.233,1.301,13.233,9.657c0,3.805-3.153,7.056-9.658,7.056
	C27.71,24.461,24.069,23.39,22.052,21.828z"/>
</svg>
